<svg width="32" height="32" viewBox="0 0 32 32" fill="none" xmlns="http://www.w3.org/2000/svg">
<path d="M25.1409 21.5312C24.3965 20.7812 22.5937 19.6867 21.719 19.2456C20.58 18.6718 20.4862 18.6249 19.5909 19.2901C18.9937 19.734 18.5967 20.1306 17.8978 19.9815C17.1989 19.8324 15.6801 18.992 14.3503 17.6663C13.0204 16.3407 12.1312 14.7779 11.9817 14.0813C11.8321 13.3848 12.2353 12.9924 12.675 12.3938C13.2946 11.5501 13.2478 11.4095 12.7181 10.2704C12.3051 9.38447 11.1787 7.59853 10.4259 6.85791C9.62058 6.06244 9.62058 6.20306 9.10167 6.41869C8.67922 6.59643 8.27394 6.81249 7.89089 7.06416C7.14089 7.56244 6.72464 7.97635 6.43355 8.59838C6.14246 9.22041 6.01167 10.6787 7.51496 13.4096C9.01824 16.1406 10.0729 17.537 12.2559 19.7138C14.4389 21.8907 16.1175 23.0612 18.5714 24.4374C21.607 26.1376 22.7714 25.8062 23.3953 25.5156C24.0192 25.2249 24.435 24.8124 24.9342 24.0624C25.1865 23.68 25.403 23.2752 25.5811 22.8531C25.7971 22.336 25.9378 22.336 25.1409 21.5312Z" stroke="#FFFFFA" stroke-miterlimit="10"/>
</svg>
